<?xml version="1.0" encoding="UTF-8"?>
<svg width="33px" height="35px" viewBox="0 0 33 35" version="1.1" xmlns="http://www.w3.org/2000/svg" xmlns:xlink="http://www.w3.org/1999/xlink">
    <!-- Generator: Sketch 55.2 (78181) - https://sketchapp.com -->
    <title>Group 17</title>
    <desc>Created with Sketch.</desc>
    <g id="Page-1" stroke="none" stroke-width="1" fill="none" fill-rule="evenodd">
        <g id="Landing-Page" transform="translate(-1042.000000, -24.000000)">
            <g id="Group-17" transform="translate(1042.000000, 24.000000)">
                <path d="M16.2387,30.5879 C16.2387,32.1959 14.9347,33.4999 13.3267,33.4999 C11.7177,33.4999 10.4147,32.1959 10.4147,30.5879 C10.4147,28.9799 11.7177,28.6469 13.3267,28.6469 C14.9347,28.6469 16.2387,28.9799 16.2387,30.5879" id="Fill-1" fill="#FFFFFF"></path>
                <path d="M16.2387,31.5879 C16.2387,33.1959 14.9347,34.4999 13.3267,34.4999 C11.7177,34.4999 10.4147,33.1959 10.4147,31.5879 C10.4147,29.9799 11.7177,29.6469 13.3267,29.6469 C14.9347,29.6469 16.2387,29.9799 16.2387,31.5879 Z" id="Stroke-3" stroke="#0071BC"></path>
                <path d="M15.4067,9.5801 C15.4067,10.7281 14.4747,11.6601 13.3267,11.6601 C12.1777,11.6601 11.2467,10.7281 11.2467,9.5801 C11.2467,8.4311 12.1777,7.5001 13.3267,7.5001 C14.4747,7.5001 15.4067,8.4311 15.4067,9.5801" id="Fill-5" fill="#FFFFFF"></path>
                <path d="M15.4067,9.5801 C15.4067,10.7281 14.4747,11.6601 13.3267,11.6601 C12.1777,11.6601 11.2467,10.7281 11.2467,9.5801 C11.2467,8.4311 12.1777,7.5001 13.3267,7.5001 C14.4747,7.5001 15.4067,8.4311 15.4067,9.5801 Z" id="Stroke-7" stroke="#0071BC"></path>
                <path d="M21.0825,19.4956 L21.0825,18.6586 C21.0825,13.6446 18.2785,9.5796 13.9645,9.5796 L12.6885,9.5796 C8.3755,9.5796 5.5705,13.6446 5.5705,18.6586 L5.5705,19.4956 C5.5705,21.8296 3.7685,26.0166 1.9155,26.9186 C1.0585,27.3356 0.5005,28.3096 0.5005,29.3896 L0.5005,29.6256 C0.5005,31.1906 1.5925,31.0736 2.9385,31.0736 L23.7145,31.0736 C25.0615,31.0736 26.1535,31.1906 26.1535,29.6256 L26.1535,29.3896 C26.1535,28.3096 25.5955,27.3356 24.7385,26.9186 C22.8855,26.0166 21.0825,21.8296 21.0825,19.4956" id="Fill-9" fill="#FFFFFF"></path>
                <path d="M21.0825,19.4956 L21.0825,18.6586 C21.0825,13.6446 18.2785,9.5796 13.9645,9.5796 L12.6885,9.5796 C8.3755,9.5796 5.5705,13.6446 5.5705,18.6586 L5.5705,19.4956 C5.5705,21.8296 3.7685,26.0166 1.9155,26.9186 C1.0585,27.3356 0.5005,28.3096 0.5005,29.3896 L0.5005,29.6256 C0.5005,31.1906 1.5925,31.0736 2.9385,31.0736 L23.7145,31.0736 C25.0615,31.0736 26.1535,31.1906 26.1535,29.6256 L26.1535,29.3896 C26.1535,28.3096 25.5955,27.3356 24.7385,26.9186 C22.8855,26.0166 21.0825,21.8296 21.0825,19.4956 Z" id="Stroke-11" stroke="#0071BC"></path>
                <path d="M33,9 C33,13.9695 28.9695,18 24,18 C19.0305,18 15,13.9695 15,9 C15,4.0305 19.0305,0 24,0 C28.9695,0 33,4.0305 33,9" id="Fill-13" fill="#C11E2A"></path>
                <polygon id="Fill-15" fill="#FFFFFF" points="24.4325778 4.51462288 24.397234 4.51462288 22.3134844 5.63981529 22 4.40379682 24.6169804 3 26 3 26 15 24.4325778 15"></polygon>
            </g>
        </g>
    </g>
</svg>