<?xml version="1.0" encoding="UTF-8"?>
<svg width="16px" height="16px" viewBox="0 0 16 16" version="1.1" xmlns="http://www.w3.org/2000/svg" xmlns:xlink="http://www.w3.org/1999/xlink">
    <!-- Generator: Sketch 62 (91390) - https://sketch.com -->
    <title>Icon/Display/Success Filled</title>
    <desc>Created with Sketch.</desc>
    <defs>
        <path d="M12.491,5.841 L6.589,11.349 C6.437,11.491 6.24,11.569 6.033,11.569 C5.815,11.569 5.61,11.484 5.456,11.33 L3.489,9.362 C3.171,9.045 3.171,8.528 3.489,8.209 C3.807,7.893 4.325,7.892 4.642,8.209 L6.053,9.619 L11.378,4.65 C11.706,4.344 12.222,4.361 12.531,4.688 C12.838,5.017 12.82,5.534 12.491,5.841 M8,0 C3.582,0 0,3.581 0,8 C0,12.418 3.582,16 8,16 C12.419,16 16,12.418 16,8 C16,3.581 12.419,0 8,0" id="path-1"></path>
    </defs>
    <g id="Page-1" stroke="none" stroke-width="1" fill="none" fill-rule="evenodd">
        <g id="Citations-6---Citation-List---In-Progress" transform="translate(-929.000000, -815.000000)">
            <g id="Group-3" transform="translate(371.000000, 642.000000)">
                <g id="Icon/Display/Success-Filled" transform="translate(558.000000, 173.000000)">
                    <g>
                        <mask id="mask-2" fill="white">
                            <use xlink:href="#path-1"></use>
                        </mask>
                        <use id="Success" fill="#020303" xlink:href="#path-1"></use>
                        <rect id="Color" fill="#0071BC" mask="url(#mask-2)" x="0" y="0" width="16" height="16"></rect>
                    </g>
                </g>
            </g>
        </g>
    </g>
</svg>