<?xml version="1.0" encoding="UTF-8"?>
<svg width="20px" height="20px" viewBox="0 0 20 20" version="1.1" xmlns="http://www.w3.org/2000/svg" xmlns:xlink="http://www.w3.org/1999/xlink">
    <!-- Generator: Sketch 56.1 (81669) - https://sketch.com -->
    <title>CHECK</title>
    <desc>Created with Sketch.</desc>
    <defs>
        <path d="M4.07573437,10.2985313 L0.175734375,6.39853125 C-0.0585703125,6.16422656 -0.0585703125,5.78432813 0.175734375,5.55 L1.02424219,4.70146875 C1.25854687,4.46714063 1.63846875,4.46714063 1.87277344,4.70146875 L4.50000586,7.32867188 L10.1272266,1.70146875 C10.3615312,1.46716406 10.7414531,1.46716406 10.9757578,1.70146875 L11.8242656,2.55 C12.0585703,2.78430469 12.0585703,3.16420313 11.8242656,3.39853125 L4.92426562,10.2985547 C4.6899375,10.5328594 4.31003906,10.5328594 4.07573437,10.2985313 L4.07573437,10.2985313 Z" id="path-1"></path>
    </defs>
    <g id="Dashboard" stroke="none" stroke-width="1" fill="none" fill-rule="evenodd">
        <g transform="translate(-85.000000, -128.000000)" id="CHECK">
            <g transform="translate(85.000000, 128.000000)">
                <g id="Group-3" fill="#2E8540">
                    <circle id="Oval" cx="10" cy="10" r="10"></circle>
                </g>
                <g id="Solid/check" transform="translate(4.000000, 4.000000)">
                    <mask id="mask-2" fill="white">
                        <use xlink:href="#path-1"></use>
                    </mask>
                    <g id="Mask"></g>
                    <g id="Color/Black" mask="url(#mask-2)" fill="#FFFFFF" fill-rule="evenodd" stroke="#D8D8D8" stroke-width="1">
                        <rect id="Black" x="0.5" y="0.5" width="11" height="11"></rect>
                    </g>
                </g>
            </g>
        </g>
    </g>
</svg>