<svg xmlns="http://www.w3.org/2000/svg" width="24" height="25">
    <style>
        .st0{fill:#0071bc}
    </style>
    <g class="layer">
        <g id="svg_1">
            <path id="svg_2" d="M19 11h-3V.5c0-.3-.2-.5-.5-.5h-7c-.3 0-.5.2-.5.5V11H5c-.4 0-.7.5-.4.9l7 7c.2.2.5.2.7 0l7-7c.4-.4.1-.9-.3-.9z" class="st0"/>
            <path id="svg_3" d="M23 17.5c-.6 0-1 .4-1 1V22H2v-3.5c0-.6-.4-1-1-1s-1 .4-1 1V23c0 .6.4 1 1 1h22c.6 0 1-.4 1-1v-4.5c0-.6-.4-1-1-1z" class="st0"/>
        </g>
    </g>
</svg>
