<svg xmlns="http://www.w3.org/2000/svg" xmlns:xlink="http://www.w3.org/1999/xlink" width="33" height="35" viewBox="0 0 33 35"><defs><clipPath id="a"><path d="M16.239-4.412A2.912,2.912,0,0,1,13.327-1.5a2.912,2.912,0,0,1-2.912-2.912c0-1.608,1.3-1.941,2.912-1.941s2.912.333,2.912,1.941" fill="none" clip-rule="evenodd"/></clipPath><clipPath id="b"><path d="M-1042,965H238V-59H-1042Z" fill="none"/></clipPath><clipPath id="c"><path d="M15.407-25.42a2.081,2.081,0,0,1-2.08,2.08,2.08,2.08,0,0,1-2.08-2.08,2.08,2.08,0,0,1,2.08-2.08,2.08,2.08,0,0,1,2.08,2.08" fill="none" clip-rule="evenodd"/></clipPath><clipPath id="e"><path d="M21.083-15.5v-.837c0-5.014-2.8-9.079-7.118-9.079H12.689c-4.313,0-7.118,4.065-7.118,9.079v.837c0,2.334-1.8,6.521-3.655,7.423A2.716,2.716,0,0,0,.5-5.61v.236c0,1.565,1.092,1.448,2.438,1.448H23.715c1.347,0,2.439.117,2.439-1.448V-5.61a2.716,2.716,0,0,0-1.415-2.471c-1.853-.9-3.656-5.089-3.656-7.423" fill="none" clip-rule="evenodd"/></clipPath><clipPath id="g"><path d="M33-26a9,9,0,0,1-9,9,9,9,0,0,1-9-9,9,9,0,0,1,9-9,9,9,0,0,1,9,9" fill="none" clip-rule="evenodd"/></clipPath><clipPath id="i"><path d="M24.433-30.485H24.4L22.313-29.36,22-30.6,24.617-32H26v12H24.433Z" fill="none" clip-rule="evenodd"/></clipPath></defs><g transform="translate(-1363 -53)"><g transform="translate(1363 88)" clip-path="url(#a)"><g clip-path="url(#b)"><path d="M5.415-11.353H21.239V3.5H5.415Z" fill="#fff"/></g></g><g transform="translate(1373.415 82.647)"><path d="M5.824,1.941A2.912,2.912,0,1,1,0,1.941C0,.333,1.3,0,2.912,0S5.824.333,5.824,1.941Z" fill="none" stroke="#0070bb" stroke-width="1"/></g><g transform="translate(1363 88)" clip-path="url(#c)"><g clip-path="url(#b)"><path d="M6.247-32.5h14.16v14.16H6.247Z" fill="#fff"/></g></g><g transform="translate(1374.247 60.5)"><path d="M4.16,2.08A2.08,2.08,0,1,1,2.08,0,2.081,2.081,0,0,1,4.16,2.08Z" fill="none" stroke="#0070bb" stroke-width="1"/></g><g transform="translate(1363 88)" clip-path="url(#e)"><g clip-path="url(#b)"><path d="M-4.5-30.42H31.153v31.5H-4.5Z" fill="#fff"/></g></g><g transform="translate(1363.5 62.58)"><path d="M20.582,9.916V9.079c0-5.014-2.8-9.079-7.118-9.079H12.188C7.875,0,5.07,4.065,5.07,9.079v.837c0,2.334-1.8,6.521-3.655,7.423A2.716,2.716,0,0,0,0,19.81v.236c0,1.565,1.092,1.448,2.438,1.448H23.214c1.347,0,2.439.117,2.439-1.448V19.81a2.716,2.716,0,0,0-1.415-2.471C22.385,16.437,20.582,12.25,20.582,9.916Z" fill="none" stroke="#0070bb" stroke-width="1"/></g><g transform="translate(1363 88)" opacity="0" clip-path="url(#g)"><g clip-path="url(#b)"><path d="M10-40H38v28H10Z" fill="#c11e2a"/></g></g><g transform="translate(1363 88)" opacity="0" clip-path="url(#i)"><g clip-path="url(#b)"><path d="M17-37H31v22H17Z" fill="#fff"/></g></g></g></svg>