<?xml version="1.0" encoding="UTF-8"?>
<svg width="16px" height="16px" viewBox="0 0 16 16" version="1.1" xmlns="http://www.w3.org/2000/svg" xmlns:xlink="http://www.w3.org/1999/xlink">
    <title>Info</title>
    <defs>
        <path d="M8,7.5 C8.551,7.5 9,7.89396598 9,8.37742981 L9,13.1225702 C9,13.606034 8.551,14 8,14 C7.449,14 7,13.606034 7,13.1225702 L7,8.37742981 C7,7.89396598 7.449,7.5 8,7.5 Z M8.00043995,4.5 C8.55125385,4.5 9,4.94806338 9,5.5 C9,6.05193662 8.55125385,6.5 8.00043995,6.5 C7.44874615,6.5 7,6.05193662 7,5.5 C7,4.94806338 7.44874615,4.5 8.00043995,4.5 Z M8,1 C3.582,1 0,4.581 0,9 C0,13.418 3.582,17 8,17 C12.419,17 16,13.418 16,9 C16,4.581 12.419,1 8,1" id="path-1"></path>
    </defs>
    <g id="Symbols" stroke="none" stroke-width="1" fill="none" fill-rule="evenodd">
        <g id="Icon/Display/Info-Filled">
            <g transform="translate(0.000000, -1.000000)">
                <mask id="mask-2" fill="white">
                    <use xlink:href="#path-1"></use>
                </mask>
                <use id="Info" fill="#0071BC" xlink:href="#path-1"></use>
            </g>
        </g>
    </g>
</svg>