<svg xmlns="http://www.w3.org/2000/svg" id="Group_5146" data-name="Group 5146" viewBox="0 0 143.004 39.999">
    <defs>
        <style>
            .cls-1{fill:#fff}
        </style>
    </defs>
    <g id="Group_191" data-name="Group 191" transform="translate(50.021 .456)">
        <path id="Path_154" d="M175.7 3.963a2.392 2.392 0 0 1 .6-1.794 2.158 2.158 0 0 1 1.509-.569 2.189 2.189 0 0 1 1.48.569 2.373 2.373 0 0 1 .626 1.765 2.333 2.333 0 0 1-.626 1.794 2.088 2.088 0 0 1-1.48.6 2.061 2.061 0 0 1-1.509-.6 2.364 2.364 0 0 1-.6-1.765zm3.843 29.751h-3.559V10.283h3.559z" class="cls-1" data-name="Path 154" transform="translate(-175.7 -1.6)"/>
        <path id="Path_155" d="M236.126 19.057a18.723 18.723 0 0 1-2.42 9.964 12.058 12.058 0 0 1-6.8 5.381l6.52 7.744h-4.356l-6.093-7.061-1.167.028c-4.612 0-8.142-1.4-10.648-4.214S207.4 24.125 207.4 19c0-5.1 1.253-9.025 3.758-11.815S217.222 3 221.834 3q6.747 0 10.505 4.27c2.506 2.847 3.787 6.776 3.787 11.787zm-24.883 0c0 4.242.911 7.431 2.7 9.623s4.413 3.274 7.858 3.274c3.473 0 6.064-1.082 7.829-3.274s2.648-5.381 2.648-9.623c0-4.214-.883-7.374-2.648-9.566-1.765-2.164-4.356-3.246-7.8-3.246-3.473 0-6.093 1.082-7.886 3.274s-2.701 5.353-2.701 9.538z" class="cls-1" data-name="Path 155" transform="translate(-198.375 -2.601)"/>
        <path id="Path_156" d="M325.4 35.931V4.7h3.644v31.231z" class="cls-1" data-name="Path 156" transform="translate(-282.781 -3.817)"/>
        <path id="Path_157" d="M374.7 35.931h-17.4V4.7h17.4v3.217h-13.784v10.05h12.954v3.217h-12.954v11.5H374.7z" class="cls-1" data-name="Path 157" transform="translate(-305.599 -3.817)"/>
        <path id="Path_158" d="M452.944 26.474a7.652 7.652 0 0 1-2.989 6.434q-2.989 2.306-8.114 2.306a20.566 20.566 0 0 1-8.541-1.424v-3.53a22.486 22.486 0 0 0 4.185 1.281 22.184 22.184 0 0 0 4.5.484 9.1 9.1 0 0 0 5.466-1.367 4.524 4.524 0 0 0 1.851-3.843 4.927 4.927 0 0 0-.655-2.648 5.92 5.92 0 0 0-2.192-1.907 32.137 32.137 0 0 0-4.641-1.993 15.072 15.072 0 0 1-6.235-3.7 8.12 8.12 0 0 1-1.879-5.58 7 7 0 0 1 2.7-5.751 11.269 11.269 0 0 1 7.178-2.136 21.226 21.226 0 0 1 8.569 1.708l-1.139 3.16a19.458 19.458 0 0 0-7.516-1.623 7.223 7.223 0 0 0-4.5 1.224 4.077 4.077 0 0 0-1.623 3.445 5.208 5.208 0 0 0 .6 2.648 5.716 5.716 0 0 0 2.021 1.907 24.034 24.034 0 0 0 4.356 1.907q4.911 1.751 6.747 3.758a7.547 7.547 0 0 1 1.851 5.24z" class="cls-1" data-name="Path 158" transform="translate(-359.962 -2.673)"/>
    </g>
    <g id="Group_192" data-name="Group 192">
        <path id="Path_159" d="M8.854 18.79l.057-5.1 5.922 3.388L29.58 8.6v-.059L14.8 0 0 8.541v17.082l14.8 8.541.085-.057v.171l14.8-8.541V13.665l-14.852 8.541z" class="cls-1" data-name="Path 159"/>
    </g>
</svg>
