<svg xmlns="http://www.w3.org/2000/svg" id="Group_11943" x="0" y="0" version="1.1" viewBox="0 0 143.3 40" xml:space="preserve">
    <style>
        .st3{fill:#003365}
    </style>
    <path id="Path_3279" fill="#02bfe7" d="M29.4 25.4l.1-16.9L14.7 0 0 8.4v17L14.7 34l14.7-8.6z"/>
    <path id="Path_3280" fill="#00a6d2" d="M29.4 25.4L14.7 34l-.1-16.8 14.8-8.7v16.9z"/>
    <path id="Path_3281" fill="#112e51" d="M29.4 8.5l-14.8 8.7-6.1-3.4v5.1l6.2 3.5 14.8-8.7V8.5z"/>
    <path id="Path_3282" d="M49.8 2.7c0-.7.2-1.3.6-1.8.4-.4 1-.6 1.5-.6s1.1.2 1.4.6c.5.5.7 1.1.6 1.8 0 .7-.2 1.3-.6 1.8-.4.4-.9.6-1.4.6-.6 0-1.1-.2-1.5-.6-.4-.5-.6-1.2-.6-1.8zm3.9 29.8h-3.6V9h3.6v23.5z" class="st3"/>
    <path id="Path_3283" d="M87.8 16.8c.1 3.5-.7 7-2.4 10.1-1.5 2.6-3.9 4.5-6.8 5.4l6.5 7.8h-4.5L74.5 33h-1.2c-4.6 0-8.2-1.4-10.8-4.2-2.5-2.8-3.7-6.8-3.7-12 0-5.1 1.2-9.1 3.7-11.9C65 2.1 68.6.7 73.3.7c4.5 0 8.1 1.4 10.6 4.3 2.6 2.9 3.9 6.8 3.9 11.8zm-25 0c0 4.2.9 7.5 2.7 9.7s4.4 3.3 7.9 3.3 6.1-1.1 7.9-3.3c1.8-2.2 2.7-5.4 2.7-9.7 0-4.2-.9-7.4-2.7-9.6-1.7-2.2-4.4-3.3-7.9-3.3s-6.1 1.1-8 3.3c-1.8 2.2-2.6 5.5-2.6 9.6z" class="st3"/>
    <path id="Path_3284" d="M92.6 32.5V1.2h3.6v31.4h-3.6z" class="st3"/>
    <path id="Path_3285" d="M119.3 32.5h-17.6V1.2h17.5v3.3h-13.8v10.1h13.1v3.3h-13.1v11.5h13.8l.1 3.1z" class="st3"/>
    <path id="Path_3286" d="M143.3 24.2c.1 2.5-1 4.9-3 6.4s-4.7 2.3-8.2 2.3c-3.7 0-6.6-.5-8.6-1.4V28c1.4.6 2.8 1 4.2 1.2 1.5.3 3 .5 4.5.5 1.9.1 3.8-.4 5.5-1.3 1.2-.9 1.9-2.3 1.8-3.8.1-.9-.2-1.9-.7-2.7-.6-.8-1.3-1.5-2.2-1.9-1.5-.8-3.1-1.5-4.7-2-2.4-.7-4.5-2-6.2-3.7-1.3-1.6-2-3.5-1.9-5.6-.1-2.2.9-4.4 2.7-5.8 2.1-1.5 4.6-2.2 7.2-2.1 3 0 5.9.6 8.6 1.7l-1.2 3.2c-2.4-1-5-1.6-7.6-1.6-1.6-.1-3.2.3-4.5 1.2-1.1.8-1.7 2.1-1.6 3.5 0 .9.2 1.9.6 2.7.5.8 1.2 1.5 2 1.9 1.4.8 2.9 1.4 4.4 1.9 3.3 1.2 5.6 2.4 6.8 3.7 1.5 1.3 2.2 3.2 2.1 5.2z" class="st3"/>
</svg>
