<svg id="Group_11890" data-name="Group 11890" xmlns="http://www.w3.org/2000/svg" viewBox="0 0 16 16">
  <defs>
    <style>
      .cls-1 {
        fill: #0071bc;
      }

      .cls-2 {
        fill: #fff;
      }
    </style>
  </defs>
  <path id="Path_7107" data-name="Path 7107" class="cls-1" d="M8,0a8,8,0,1,0,8,8A8.024,8.024,0,0,0,8,0Z"/>
  <path id="Path_7108" data-name="Path 7108" class="cls-2" d="M8.2,2A3.222,3.222,0,0,0,5,5.2a.923.923,0,0,0,1,.9.839.839,0,0,0,.9-.9,1.4,1.4,0,1,1,2.8,0A1.375,1.375,0,0,1,8.2,6.5a.9.9,0,0,0-.9.9V9.7a.9.9,0,0,0,1.8,0V8.2a3.336,3.336,0,0,0,2.3-3.1A3.077,3.077,0,0,0,8.2,2Z"/>
  <path id="Path_7109" data-name="Path 7109" class="cls-2" d="M8.2,11.4a1.3,1.3,0,1,0,1.3,1.3A1.261,1.261,0,0,0,8.2,11.4Z"/>
</svg>
