<svg xmlns="http://www.w3.org/2000/svg" viewBox="0 0 198.46 198.86">
    <defs>
        <style>
            .cls-1{fill:#fff}
        </style>
    </defs>
    <g id="Layer_2" data-name="Layer 2">
        <path d="M177.58 33c.32 6.85-5.11 11.08-9.21 15.11l-42.11 35.4c-3.79 3.49-9.26 6.43-11.39 11.71-2.79 7-3.83 14.74-5 22.44-.68 5.56-5.88 10.39-10.7 12.43-3.76 1.31-8.26.7-12.36 1l-14.68.1a4.59 4.59 0 0 0-2.95 2l-.55 1.45c-1.57.24-1-1.14-1.27-2.1 0-3.23.76-6.6 3.14-8.5 1.27-1.3 3.06-1.61 4.83-1.9l21.41-.31a5.32 5.32 0 0 0 3-1.39l.87-1.66c1.71-10.66 2.69-21.71 8-30.77 4.92-5.75 11.13-9.71 16.61-14.77 12.7-10.78 25.87-21.75 38.41-32.69 3.56-3.36 7.31-7.79 8.19-13.1l.38-1.45a8.12 8.12 0 0 1 5.38 7" class="cls-1"/>
        <path d="M189.92 45c.64 6.65-4.58 9.81-8.74 13.92L164 73.67 133.46 99.6c-4.34 4.89-4.56 11.81-5.66 18.06.18 2 2.23 2.87 1.83 5l-4.25 7.65c.24 3.05 4 1.29 5.17 3.19 0 1.1-.7 2.47.17 3.38.59 1.05 3.05-.36 1.76 1.32-.35.28-.22 1-.11 1.32.51.67 1.46.73 1.54 1.73a5 5 0 0 0 .31 4.16c5.3 5.78 14.42-1.37 19.94 4.05 1.4 1.24 1.36 3.53 1 5.25-3 8.65-20.41 9.29-14.44 21.55a7 7 0 0 0 5.69 3.52c2 .32 3.47-.51 5.11-1 .51 0 .55.5.76.78v.33c-5.05 3.59-11.56 8.88-18.27 5a10.47 10.47 0 0 1-4.24-10.75c2.05-6.79 9.86-8.52 13.77-14.22a5.72 5.72 0 0 0-.23-5.48c-1.24-2.22-4.13-2.82-6.65-3.28-4.2-.09-10.62 2.56-12.49-2.36-.54-1.88 1.37-5.2-1.64-5.63-.41-.53-1.36-1-.86-1.85.14-.49 1-.55.55-1.2-.59-.17-1.39 0-1.87-.54-1.7-1.86 3-3.88-.18-5.15-1.62-.22-3.8 1-4.84-.87-.51-1.72.78-2.95 1.42-4.36 1.08-2.41 4.23-4 3.42-7.13l-1.57-2.64a98.56 98.56 0 0 1 3.07-18C123.75 95 130 91.35 134.78 86.9l25.62-21.66 18.13-16c3.15-2.91 5.89-6.2 5.78-10.62 1-.33 1.61.83 2.44 1.19 1.51 1.73 2.81 3 3.17 5.14" class="cls-1"/>
        <path d="M183 77.27c-3.37 5.38-9 9.43-14 13.69l-19.69 16.5c-3.61 3.27-4.57 8.93-2.92 13.34.18 2.24-1.55 3.65-2.09 5.61.05.58.17 1.33.77 1.5.82.32 2.06-.1 2.51 1 .12 1.16-.4 2.4.87 2.84.5.29 1.26-.6 1.31.32a2.43 2.43 0 0 0-.45 1.64c.64 1.15 2.05.51 2.63 1.46.25 1.33.25 3.05 1.75 3.61 5.11.85 9-2.61 13.58-3.61 7.3-2.28 14.36.58 20.87 2.52a35.83 35.83 0 0 0 10.08 0l.23.21c-4.15 5.06-9.26 10-16.51 9.48-7.61-.28-12.52-7.38-20.68-6-5.53 1.1-11 4.42-17 2.19a5.34 5.34 0 0 1-1.56-5.58c-.29-1.31-3.45-1.63-1.48-3.36-.61-.4-1.65 0-2-.91-.47-1 .81-2.6-.56-3.29-1.23-.18-2.81.51-3.73-.53a2.67 2.67 0 0 1-.23-2.28c.88-2.1 3.24-3.75 2.73-6.24-1.58-1.5-1.06-4-.86-6.12.9-4.83 1.27-9.93 5.77-13.14l24.22-20.46c5.1-4.87 11.4-8 15.09-14.44 1.91 2.63 2.82 6.9 1.31 10.07M109 148.92c6.88 2.91 14.08 5.8 20.22 9.85a6.14 6.14 0 0 1 2.61 5.36c-2.11 8.71-14.23 9.64-12.44 19.9a9.72 9.72 0 0 0 6.78 8.21 11.08 11.08 0 0 0 5.66 0c.28.67 1.46 1.31.13 1.76-5 3.18-11.34 6.75-17.41 3.7-3-1.37-4.7-4.57-5.47-7.65-1.23-9.31 7.43-12.24 11.82-18.47a6.06 6.06 0 0 0 .66-4.15 9.08 9.08 0 0 0-3.73-3.84c-16.32-9.14-34-15.31-52.27-20-3-.29-7.71-2.05-9.72 1.46v.16c-1.63.35-1-1.62-1-2.49a8.48 8.48 0 0 1 5-6.58c4.73-1.4 9.75.28 14.35 1.11A308.33 308.33 0 0 1 109 148.92" class="cls-1"/>
        <path d="M105.07 187c-1.46.13-1.52.17-1.57.54s0 1.55 0 3.63.07 3.15.13 3.63.14.4 1.6.47v.57l-4.62.09a4.43 4.43 0 0 1-5.06-4.56c0-2.37 1.39-4.77 5.07-4.84l4.4-.09zm-3.19.73c0-.53-.11-.57-1-.56-2.59.05-3.63 1.26-3.57 4.17s1.16 4.07 3.75 4c.87 0 1-.08 1-.34zm-7.15-.59c-1.27 0-1.33 0-1.41.4s-.2 1.52-.36 3.63-.27 3.12-.25 3.6.07.41 1.31.61v.58l-5.06-.44a12.33 12.33 0 0 0-2.11 0v-2.58l.59-.05c.22 1.77.48 2 2.37 2.13l1.2.11c.16 0 .24-.06.27-.25l.26-3.07c0-.18 0-.23-.42-.28h-.39c-1.44-.15-1.56.09-1.78 1h-.58c.06-.44.12-.87.17-1.51s.06-1.14.08-1.53l.62.05c0 1 .15 1.23 1.19 1.32l.94.09c.15 0 .24 0 .25-.23l.3-3.43a.21.21 0 0 0-.23-.27l-2.28-.2c-1.08-.1-1.4.18-1.73 1l-.39.9-.6-.22a18.46 18.46 0 0 0 .59-2.56l7.55.64zm-8.68-.74c-1.37-.15-1.45-.13-1.57.21s-.35 1.52-.72 3.57-.58 3.11-.61 3.58.06.41 1.39.78l-.1.56-4.87-.91a3.54 3.54 0 0 1-2.2-1.16 2.18 2.18 0 0 1-.49-1.81c.38-1.86 2.12-2.35 4.49-1.92.36.07.74.18.93.21l.58-3.18c.08-.36 0-.43-1.56-.81l.09-.56 4.73.88zm-3.87 3.75a4.75 4.75 0 0 0-.63-.14c-1.33-.23-2.59-.23-2.93 1.54s.73 2.1 2.17 2.37c.62.11.68 0 .74-.2zm-3.33-5c-1.06-.21-1.32.06-2.06 1l-3.82 5a13 13 0 0 0-1.07 1.5l-.69-.2a9.44 9.44 0 0 0 0-1.67l-.81-7c-.09-.94-.15-1.11-1.24-1.4l.16-.57 4.44 1.27-.17.53c-1.3-.31-1.45-.21-1.54.12a14.75 14.75 0 0 0 .1 2 .29.29 0 0 0 .14.15c.33.13 1 .34 2.27.7.83.23.88.18 1.07 0a10.68 10.68 0 0 0 1-1.46c.12-.42 0-.54-1.21-1l.17-.55 3.47 1zm-6.49 1.6h-.16a1.6 1.6 0 0 0 0 .32l.33 3.59 2.23-3c0-.08.11-.13.12-.18s0-.1-.12-.14zm-3.56-4.46c-1.27-.41-1.35-.41-1.52-.08s-.63 1.39-1.42 3.32-1.21 2.94-1.33 3.39 0 .42 1.13 1l-.22.53-4.63-1.9a3.27 3.27 0 0 1-1.74-1.28 2 2 0 0 1-.1-2c.74-1.83 2.87-1.34 2.92-1.44a.7.7 0 0 0 0-.38L61 180c-.21-.89-.3-1.05-.88-1.3l.2-.53 2.06.86 1.07 5c.05.16.12.23.64.42s.52.21.58.09a30.85 30.85 0 0 0 1.15-3c.11-.35 0-.43-1.13-1l.22-.53 4.15 1.7zm-4.59 3.3c.07-.23.07-.3-.7-.63-1.84-.76-2.64.16-2.92.86-.43 1 .06 2 1.37 2.6.87.35.93.34 1.07 0zm-4.93-7.36c-1.33-.6-1.42-.6-1.64-.29s-.39.64-.76 1.34L54 184.79l1.37.72c.41.21.77 0 2-1.18l.51.41a11.92 11.92 0 0 0-1.41 2.13c-.22-.17-.42-.3-.66-.46a4 4 0 0 0-.67-.39L51 183.87a12.63 12.63 0 0 0-1.46-.61 15 15 0 0 0 .94-2.37l.61.16c-.23 1.65-.24 2.1.17 2.32l1.37.7 2.88-5.51c.36-.7.56-1.14.67-1.4s.06-.42-1.17-1.17l.26-.51 4.28 2.23zm-6.18-3.09c-1.25-.75-1.34-.75-1.59-.49s-.9 1.25-2.08 3-1.78 2.61-2 3-.13.41 1 1.31l-.33.47-3-2c0-.09.11-.24.16-.38l1.93-7.19-6.39 4.62-3-2 .34-.48c1.26.75 1.33.77 1.58.48s.92-1.25 2.08-3 1.81-2.61 2-3 .14-.4-1-1.3l.3-.48 3.9 2.66-.32.47c-1.22-.71-1.34-.71-1.52-.43L41 176.51l6.61-4.76c.19-.14.37-.27.57-.44l.83.57a3.41 3.41 0 0 0-.19.55l-2.13 8 3.55-5.18a8.2 8.2 0 0 0 .61-1.08c.16-.32.13-.39-.89-1.21l.32-.47 3.2 2.17zm-10.4-7.3c-1-.77-1.08-.77-1.35-.53s-1.06 1.13-2.42 2.71-2.1 2.39-2.36 2.76-.19.37.71 1.28l-.4.43-3.82-3.35a15.52 15.52 0 0 0-1.69-1.24 20.62 20.62 0 0 0 1.5-2.09l.51.29c-.87 1.58-.76 1.9.65 3.14l.91.8c.14.1.22.09.37 0l2-2.32c.12-.13.13-.21-.19-.47l-.26-.24c-1.1-1-1.33-.86-2.05-.24l-.46-.38c.31-.32.6-.62 1-1.12s.74-.89 1-1.18l.47.39c-.6.79-.61 1.08.19 1.77l.68.63c.13.09.24.13.36 0l2.26-2.58a.23.23 0 0 0 0-.37l-1.74-1.5a1.36 1.36 0 0 0-2-.19l-.8.53-.38-.57a21.1 21.1 0 0 0 2-1.71l5.7 5zm-6.46-5.64c-1-.89-1-.91-1.33-.7s-1.18 1-2.71 2.44-2.33 2.16-2.62 2.51-.22.38.59 1.39l-.41.37-1.9-2a4.13 4.13 0 0 0 .17-.71l1.67-7.31-1.53 1.42c-1.53 1.42-2.32 2.15-2.62 2.51s-.23.39.7 1.5l-.42.39-2.6-2.79.42-.39c.86.92 1 .95 1.56.49l1.72-1.51c1.92-1.8 3.52-3.31 4.25-4.12l.67.73a21.16 21.16 0 0 0-.89 3.24l-1.23 5.63 2-1.85c1.53-1.42 2.32-2.14 2.64-2.51s.21-.37-.85-1.64l.44-.39 2.7 2.93zm-7.95-8.91c-1-1.12-1-1.14-1.34-1a14.48 14.48 0 0 0-1.27.89l-5 3.74.93 1.23c.27.36.7.29 2.3-.2l.27.56a15.66 15.66 0 0 0-2.2 1.31c-.14-.23-.26-.48-.39-.69s-.29-.45-.45-.66l-2.77-3.7a10.79 10.79 0 0 0-1.07-1.2 14.66 14.66 0 0 0 1.89-1.71l.46.41c-.93 1.39-1.11 1.76-.84 2.15l.93 1.23 5-3.72c.63-.48 1-.8 1.21-1s.26-.34-.55-1.57l.47-.34 2.88 3.85zm-16.87-9.41c-1.17-2.22-.33-4.84 2.28-6.2s5.24-.62 6.42 1.58.31 4.86-2.28 6.25-5.27.57-6.42-1.63m8.12-4.3c-.66-1.27-2.48-1.72-5-.36s-3.19 3.07-2.52 4.36 2.48 1.71 5 .36 3.2-3.09 2.52-4.36M17 134.87c-.55-1.12-.59-1.16-1-1.07a35 35 0 0 0-3.37 1.31c-2 .77-2.94 1.18-3.37 1.42s-.33.24 0 1.44l-.5.2-1.92-4.7a16.48 16.48 0 0 0-.84-1.88 19.63 19.63 0 0 0 2.28-1.19l.31.49c-1.48 1-1.54 1.35-.82 3.09l.44 1.13c.06.15.17.19.35.12l2.85-1.14c.15-.07.21-.14.05-.49l-.14-.37c-.55-1.34-.79-1.34-1.72-1.11l-.23-.56c.41-.16.82-.29 1.41-.53s1.07-.44 1.42-.59l.23.55c-.89.43-1 .69-.64 1.66l.36.86c.05.15.13.22.33.14l3-1.23c.34-.12.33-.24-.14-1.68l.52-.21 1.68 4.11zm-4.32-11.3c-.4-1.34-.47-1.39-.85-1.35s-1.5.3-3.53.77-3.07.74-3.52.88-.38.22-.13 1.58l-.59.12L3 121l.56-.15c.41 1.33.46 1.4.84 1.34a17 17 0 0 0 1.7-.33l.87-.2c.4-.1.42-.14.35-.49l-.81-3.46c-.08-.34-.15-.36-.53-.27l-.88.19c-.62.17-1.4.36-1.66.44s-.38.22-.17 1.59l-.54.13-1.09-4.49.58-.16c.41 1.32.46 1.41.81 1.35s1.54-.3 3.56-.76 3.08-.73 3.53-.89.37-.21.15-1.57l.55-.13 1.06 4.55-.56.14c-.4-1.34-.45-1.4-.81-1.35a29.12 29.12 0 0 0-3 .65c-.39.08-.43.13-.35.47l.84 3.46c.08.35.13.38.53.29 1.53-.36 2.6-.63 3-.76s.38-.22.15-1.59l.58-.12 1.05 4.57zm-2.42-10.75c-.26-1.23-.3-1.28-.68-1.28s-1.53.12-3.6.36-3.15.38-3.6.5-.4.14-.33 1.41l-.58.07-.61-5a13.7 13.7 0 0 0-.4-2.06c.64-.11 2.16-.42 2.52-.54l.17.54c-1.7.59-1.85.87-1.62 2.75l.14 1.22c0 .16.12.23.31.21l3.02-.41c.2 0 .23-.06.2-.46l-.05-.37c-.18-1.45-.43-1.53-1.4-1.55l-.06-.57c.45-.06.86-.07 1.52-.16s1.15-.16 1.52-.23l.06.61c-1 .21-1.17.42-1.05 1.45l.12.93c0 .17.08.23.27.22l3.4-.41c.18 0 .26-.1.25-.27l-.27-2.3c-.14-1.07-.46-1.3-1.38-1.48l-1-.17.1-.65a18.13 18.13 0 0 0 2.63 0l.89 7.5zm-1.04-8.27c-.09-1-.41-1.23-1.58-1.66l-5.88-2.21a12.94 12.94 0 0 0-1.76-.61v-.72a7.3 7.3 0 0 0 1.58-.52L8.07 96c.86-.35 1-.45 1-1.59h.57l.07 4.61h-.58c-.07-1.36-.2-1.46-.55-1.46a10.69 10.69 0 0 0-1.91.7.27.27 0 0 0-.13.18v2.38c0 .85.09.88.38 1a9.18 9.18 0 0 0 1.68.51c.41 0 .51-.16.59-1.44h.56l.07 3.61zm-3.4-5.72c0-.12 0-.16-.06-.16a1.29 1.29 0 0 0-.31.08l-3.34 1.34 3.47 1.29a.65.65 0 0 0 .23.06s.06-.07.06-.16zm3.3-4.7c0-1.29 0-1.38-.39-1.43s-1.52-.17-3.6-.37-3.13-.27-3.63-.26-.41.08-.61 1.34H.3l.39-4.31h.55c0 1.3 0 1.37.4 1.44s1.09.14 1.72.21l5.36.46c.48 0 .58-.09.63-.49l.11-1.54c.12-1.31-.26-1.55-2.06-2.46l.23-.59a15.76 15.76 0 0 0 2.71.61l-.64 7.42zm.88-8.89c.16-1.46.14-1.52-.23-1.64a15.15 15.15 0 0 0-1.51-.32l-6.14-1.06-.23 1.53c-.1.47.25.71 1.7 1.52l-.23.6a14.59 14.59 0 0 0-2.45-.68c.08-.26.15-.51.21-.78s.12-.51.18-.76l.78-4.58a9.13 9.13 0 0 0 .15-1.58 14.57 14.57 0 0 0 2.53.18v.63c-1.64.29-2.06.39-2.15.84l-.26 1.54 6.14 1.07a12.86 12.86 0 0 0 1.52.19c.37 0 .44 0 .77-1.46l.57.09-.84 4.76zm1-6.45c.28-1.34.27-1.44-.07-1.58s-1.43-.48-3.43-1.06-3-.85-3.51-.93-.43 0-.91 1.31l-.54-.16 1.27-4.48.55.15c-.28 1.35-.25 1.44.09 1.57s1 .36 1.65.54l.9.25c.36.1.42.08.53-.26l1-3.41c.08-.35.06-.4-.33-.51L7.25 70c-.58-.18-1.37-.36-1.65-.43s-.45 0-.91 1.32l-.55-.16 1.28-4.49.55.15c-.27 1.37-.26 1.44.08 1.58s1.48.47 3.48 1 3 .85 3.51.94.41 0 .89-1.3l.55.14-1.26 4.51-.57-.16c.29-1.34.26-1.44-.08-1.57s-1.41-.47-2.92-.9c-.39-.1-.45-.06-.55.24l-1 3.43c-.09.33-.05.39.34.51 1.51.42 2.57.7 2.95.78s.43 0 .91-1.31l.53.15-1.27 4.5zm8.87-23.46a3.73 3.73 0 0 1-.21 2.22c-.28.61-.78.93-1.79 1.28a3.9 3.9 0 0 1-.19 2.87A2.71 2.71 0 0 1 14 63.12c-1.18-.56-1.76-1.6-1.81-3.55a4.52 4.52 0 0 1-2.38-.14c-.8-.39-1.3-1.25-.66-2.61.55-1.16 1.42-1.7 2.45-1.21a2.39 2.39 0 0 1 1.14 2.48c1.45-.09 2.82-.21 4.19-.42a3.61 3.61 0 0 0-1.31-1.78c-.36-.18-.62-.06-.93.45l-.5-.25 1.32-2.82.54.24a1.7 1.7 0 0 0 .33 2 9.89 9.89 0 0 1 1.16 2c1.12-.24 1.43-.38 1.68-.9a3 3 0 0 0 .09-1.61zm-7.71 2.85a1.6 1.6 0 0 0-1-1.51 1 1 0 0 0-1.42.33.9.9 0 0 0 .58 1.22 2.48 2.48 0 0 0 1.84 0m5 2.49a2.65 2.65 0 0 0 .12-1.71 23.59 23.59 0 0 1-4.58.5 2 2 0 0 0 1.17 2c1 .46 2.72.36 3.28-.85m5-9.35c.73-1.18.73-1.26.45-1.52s-1.22-.92-2.94-2.11-2.59-1.82-3-2-.42-.15-1.28.93l-.47-.33 2.69-3.87.46.32c-.71 1.2-.72 1.29-.45 1.53s.87.68 1.41 1l.72.5c.3.22.39.22.6 0l2-2.91c.19-.3.19-.35-.16-.58l-.74-.53c-.51-.37-1.18-.79-1.44-.95s-.4-.12-1.28.94l-.45-.32L21 37.58l.49.31c-.72 1.19-.72 1.28-.46 1.52s1.22.93 3 2.13 2.58 1.82 3 2 .42.14 1.28-.94l.48.33L26 46.8l-.48-.33c.71-1.18.74-1.28.46-1.51s-1.2-.9-2.5-1.8c-.32-.24-.39-.24-.59.05l-2 2.91c-.2.29-.18.35.16.58 1.29.91 2.21 1.53 2.53 1.72s.42.13 1.3-1l.44.34-2.68 3.82zm-.15-15l3.14-3.46.42.37c-.85 1.09-.88 1.17-.65 1.47S26 35.75 28.56 38c.8.73 2.25 1.61 3.66.08 1.59-1.77.92-2.78-1.13-4.66-1.65-1.42-2.45-2.17-2.83-2.42s-.38-.2-1.43.84l-.42-.4 2.59-2.9.43.36c-.86 1.1-.88 1.19-.64 1.48s1.12 1.05 3.29 3c1.57 1.4 2.84 2.94.54 5.49a3.31 3.31 0 0 1-5.15.25c-2.5-2.25-3.29-3-3.67-3.23s-.38-.2-1.39.76zm13.4-1.76c1.06-1 1.07-1.11.87-1.41s-1-1.22-2.32-2.79-2.06-2.4-2.42-2.71-.35-.24-1.52.64l-.37-.44 2.76-2.38a1.88 1.88 0 0 0 .32.25l6.44 3.72L36.37 22l2.71-2.32.38.43c-1 1-1.1 1.12-.87 1.42s1 1.19 2.31 2.79 2.08 2.4 2.44 2.71.33.24 1.52-.66l.37.44-3.57 3.07-.38-.43c1-1 1-1.11.82-1.36l-4.88-5.7L40.11 30a3.91 3.91 0 0 0 .28.68l-.77.67a3.08 3.08 0 0 0-.5-.33L32 26.93l4 4.76a11.74 11.74 0 0 0 .89.88c.29.24.35.22 1.4-.55l.38.42L35.79 35zm10.06-8.49c.84-.64.81-1 .57-2.22l-1.26-6.16a16.38 16.38 0 0 0-.41-1.82l.58-.36a9.46 9.46 0 0 0 1.29 1l5.82 4c.77.54.93.62 1.88 0l.31.48-3.86 2.51-.33-.48c1.13-.78 1.15-.93.94-1.22a11.56 11.56 0 0 0-1.6-1.27.31.31 0 0 0-.21 0c-.28.16-.89.5-2 1.24-.71.45-.7.55-.66.86a8.52 8.52 0 0 0 .48 1.74c.22.35.39.35 1.52-.29l.31.51-3 1.95zm3-5.91c.1-.07.11-.13.09-.16s-.17-.14-.22-.2l-2.92-2.13.74 3.64a1 1 0 0 0 .07.21c0 .05.12 0 .17 0zm5.87.19c1.13-.67 1.19-.75 1-1.09s-.63-1.4-1.57-3.28-1.4-2.83-1.66-3.22-.29-.32-1.48.18l-.25-.51 2.49-1.24c.14.09.37.21.62.37l6.53 3.66-.93-1.88c-.93-1.86-1.41-2.82-1.68-3.22s-.27-.32-1.63.25l-.26-.51L59 8.13l.25.51c-1.13.56-1.19.69-.9 1.37s.63 1.42 1 2.06c1.17 2.35 2.15 4.32 2.74 5.25l-.89.43A18.78 18.78 0 0 0 58.3 16l-5-2.79 1.22 2.44c.93 1.85 1.41 2.83 1.66 3.22s.29.31 1.8-.33l.25.51-3.57 1.77zm14.15-9.08c.88 1.41 1.9 2.23 3.28 1.81s1.88-1.48 1.63-2.29-1-.94-2-1h-1.1c-2.54 0-3-.77-3.36-1.78-.51-1.67.52-3.2 2.51-3.82A10 10 0 0 1 72 3.71c0 .14.09.38.16.57.2.62.41 1.23.68 1.85l-.61.19c-.71-1.52-1.65-1.84-2.9-1.46A1.91 1.91 0 0 0 67.87 7c.19.57.59.87 1.65.93L71.9 8c1.53.07 2.28.6 2.66 1.83.54 1.73-.55 3.23-2.65 3.88-1 .29-2 .21-3 .48-.22-.65-.67-1.81-1-2.63zm7.46.39c1.21-.35 1.25-.41 1.23-.76s-.28-1.53-.69-3.58-.65-3.09-.8-3.53-.19-.38-1.42-.23L74.15 3l5-1a14.66 14.66 0 0 0 2-.59 18.81 18.81 0 0 0 .78 2.45l-.54.2c-.74-1.62-1-1.74-2.9-1.35l-1.19.24a.24.24 0 0 0-.19.32l.63 3c0 .19.08.23.46.17l.39-.08C80 6 80 5.78 80 4.81l.57-.12c.08.43.15.86.28 1.49s.27 1.12.35 1.49l-.58.13c-.28-.93-.5-1.13-1.55-.9l-.91.16c-.16.05-.22.12-.18.3l.69 3.36c0 .18.13.24.3.2l2.25-.45c1.08-.24 1.28-.57 1.37-1.49l.08-1h.66a20.3 20.3 0 0 0 .17 2.61l-7.41 1.56zm8.55-1.8c1.35-.22 1.43-.28 1.43-.65s-.08-1.54-.3-3.61-.31-3.14-.4-3.61-.16-.39-1.55-.35l-.06-.56 5.2-.52A3.4 3.4 0 0 1 91 .85a2 2 0 0 1 1 1.67c.2 2-2 2.53-2 2.64s0 .15.22.34l2.5 2.66c.62.67.79.78 1.46.72v.56L92 9.67l-3.4-3.93c-.12-.12-.22-.13-.8-.09s-.58.09-.58.23c.25 2.41.31 2.79.37 3.15s.16.4 1.55.35v.58l-4.65.45zm2.62-5.08c0 .25.08.3 1 .22 2.08-.19 2.37-1.38 2.3-2.13-.13-1.11-1-1.78-2.53-1.64-1 .09-1 .14-1 .47zM92.52.17l4.61-.08v.58h-.64c-.63 0-.75.22-.75.43a36.72 36.72 0 0 0 1.42 3.83l1 2.54 1-2.73A29.29 29.29 0 0 0 100.48 1c0-.37-.21-.39-1.41-.37V.05l3.62-.05v.58h-.39c-.62 0-.87.28-1.49 1.89-2.07 5.45-2.3 6.07-2.5 7.25h-.89a71.68 71.68 0 0 0-3.2-7.81C93.68.76 93.6.75 92.52.74zM103 9c1.47 0 1.55 0 1.62-.38s.18-1.53.33-3.6.27-3.16.25-3.63-.1-.39-1.56-.61l.06-.57 4.83.39-.06.57c-1.46 0-1.55 0-1.6.37a35.49 35.49 0 0 0-.36 3.62c-.16 2.08-.26 3.16-.23 3.6s.09.43 1.53.64v.58l-4.84-.39zm14.42.28a4.82 4.82 0 0 1-4.49 1.66c-2.14-.35-4.2-2.2-3.65-5.56a4.67 4.67 0 0 1 5.63-4.1 12.26 12.26 0 0 1 2.75.88 19.3 19.3 0 0 0-.08 2.6h-.67c-.21-1.65-.89-2.67-2.4-2.92-1.68-.23-3.08 1.16-3.51 3.75-.43 2.71.78 4.32 2.34 4.56a3.84 3.84 0 0 0 3.53-1.33zm.11 1.64c1.23.24 1.3.22 1.44-.13s.47-1.46 1-3.49.82-3 .9-3.51 0-.43-1.19-.85l.15-.56 4.89 1.33a13.66 13.66 0 0 0 2.08.39c-.15.64-.42 2.16-.44 2.54h-.57c.08-1.79-.14-2-2-2.53l-1.17-.31a.23.23 0 0 0-.32.2l-.8 3c0 .16 0 .25.34.35l.39.1c1.4.39 1.56.18 1.93-.71l.58.16c-.13.43-.28.81-.43 1.46s-.28 1.11-.36 1.49l-.6-.15c.19-1 .08-1.25-1-1.51l-.9-.27a.23.23 0 0 0-.31.19l-.89 3.32c0 .18 0 .26.18.31l2.22.6a1.38 1.38 0 0 0 1.9-.72l.5-.83.56.35a20 20 0 0 0-1 2.4l-7.32-2zm10.23.25c-.17 1.66.13 2.93 1.49 3.45s2.38 0 2.68-.82-.22-1.36-1-2l-.87-.7c-2-1.58-1.93-2.46-1.56-3.46.63-1.64 2.39-2.22 4.33-1.48a10.54 10.54 0 0 1 2.34 1.2 3.79 3.79 0 0 1-.22.58c-.22.61-.39 1.22-.6 1.87l-.6-.22c.38-1.64-.18-2.46-1.38-2.9a1.83 1.83 0 0 0-2.49.76c-.21.56-.06 1 .75 1.71l1.82 1.53c1.16 1 1.43 1.87 1 3.08-.66 1.73-2.45 2.23-4.45 1.45-.92-.33-1.74-1.1-2.64-1.43.23-.66.58-1.84.79-2.72zm10.9 1.89a.94.94 0 1 1-.81 1.69.94.94 0 0 1 .81-1.69m4.34-2.3l4 2.35-.3.48c-1.25-.6-1.31-.6-1.55-.3s-.82 1.31-2.55 4.24c-.52.92-1.11 2.54.71 3.6 2 1.18 2.9.34 4.3-2.07 1.12-1.9 1.65-2.84 1.86-3.26s.1-.42-1.13-1.23l.29-.5 3.38 2-.3.48c-1.24-.61-1.32-.62-1.55-.32s-.83 1.29-2.31 3.82c-1.06 1.82-2.31 3.38-5.25 1.66a3.31 3.31 0 0 1-1.32-5c1.71-2.9 2.24-3.84 2.42-4.27s.11-.41-1-1.19zm7.33 11.79c-.63 1.54-.67 2.86.47 3.72s2.32.63 2.83-.05.14-1.38-.44-2.2l-.63-.9c-1.46-2.09-1.19-2.9-.54-3.76 1-1.4 2.89-1.5 4.57-.26a11.66 11.66 0 0 1 1.91 1.81c-.09.14-.25.33-.36.48-.39.53-.74 1.07-1.1 1.64l-.51-.37c.81-1.49.5-2.43-.53-3.18a1.88 1.88 0 0 0-2.61.05c-.35.48-.35 1 .24 1.86l1.33 2c.86 1.27.88 2.2.12 3.23-1.07 1.45-2.93 1.47-4.69.18-.81-.6-1.38-1.53-2.16-2.1.39-.58 1.07-1.62 1.49-2.42zm4.08 6.13c.82.66 1.17.53 2.28 0l5.64-2.76c1-.5 1.21-.6 1.65-.88l.52.47a8.48 8.48 0 0 0-.7 1.52l-2.42 6.65c-.33.89-.35 1 .49 1.8l-.38.41-3.41-3.08.38-.43c1 .87 1.22.87 1.44.6a12.9 12.9 0 0 0 .81-1.87.23.23 0 0 0-.05-.21c-.24-.26-.73-.74-1.72-1.64-.63-.58-.71-.56-1-.42a8.9 8.9 0 0 0-1.53.87c-.27.31-.23.47.65 1.42l-.39.42-2.67-2.44zm6.48 1.45c.09.09.14.08.17.07a1.46 1.46 0 0 0 .14-.28l1.31-3.37-3.31 1.65-.2.11a.13.13 0 0 0 .07.17z" class="cls-1"/>
    </g>
</svg>
