<svg xmlns="http://www.w3.org/2000/svg" data-name="Layer 1" viewBox="0 0 205 70.66">
    <path fill="#edcb04" d="M23.23 57.54c-2.86-2.9-4.23-6-4.08-9.4.8-17.62 42.74-35.68 93.5-40.26 7.76-.7 15.47-1 22.91-1a178.71 178.71 0 0 1 37.6 3.62l.17-.73c-11.38-3-25.63-4.54-41.19-4.54-7.37 0-15 .35-22.72 1.05-50.49 4.55-92.23 22.71-93 40.48-.22 4.87 2.55 9.28 8.23 13.1l-1.39-2.27z"/>
    <path fill="#1c4e9d" d="M129 .86c-8.17 0-16.78.34-25.67 1.14C48.68 6.93 3.38 26.54 2.51 45.65c-.42 9.39 9.94 17 27.07 21.63l-3.19-3.36c-9.55-4.49-14.94-10.35-14.64-17.18C12.62 27.63 57.92 8 112.6 3.09a253.25 253.25 0 0 1 45.52-.21A208.74 208.74 0 0 0 129 .86zM67.45 26.05c-14.35 0-25.89 6.58-25.89 16.59S53.1 59.28 67.45 59.28a34.44 34.44 0 0 0 17.68-4.54l-5.71-4.07a21 21 0 0 1-11 3.2c-6.64 0-10.9-3.39-10.9-11.23s4.26-11.32 10.9-11.32a21.09 21.09 0 0 1 11 3.29l5.71-4.06a34.83 34.83 0 0 0-17.68-4.5zm106.08.05c-11.16 0-20 3.63-20 11 0 6 6.46 8.27 15.11 10.16 5.83 1.26 11.53 1.93 11.53 4.69 0 1.5-2.38 2.37-7.21 2.37a26.61 26.61 0 0 1-14.48-4.93l-5.83 3.77c2.64 2.47 9.47 6.14 20.31 6.14 13 0 21-4.21 21-10.78 0-6-6.7-8.86-15.67-10.84-7.21-1.6-11.72-1.84-11.72-4.11 0-1.45 2-2.57 7.15-2.57 3.19 0 9 1.26 12.34 3.58L191.7 31c-4.64-3.28-10.09-4.88-18.18-4.88zm-84.35 1v31.2h9.63V38.77l12.63 19.5h9.69l11.1-19.5v19.5h14.93v-31.2H130.7l-10.78 18.77-12-18.77zM64.33 64.41a1.59 1.59 0 0 0-1.7 1.59c0 1.71 2.24 1.4 2.24 2.54a.77.77 0 0 1-.88.77 1 1 0 0 1-1-.81h-.15a6.52 6.52 0 0 1-.22 1 2.12 2.12 0 0 0 1.22.33 1.77 1.77 0 0 0 2-1.71c0-1.7-2.29-1.43-2.29-2.54a.73.73 0 0 1 .78-.68.91.91 0 0 1 .92.65h.11c.1-.33.15-.51.24-.74a1.92 1.92 0 0 0-1.23-.37zm108.39 0A1.59 1.59 0 0 0 171 66c0 1.71 2.25 1.4 2.25 2.54a.78.78 0 0 1-.88.77 1 1 0 0 1-1-.81h-.14a8.14 8.14 0 0 1-.22 1 2.08 2.08 0 0 0 1.21.33 1.77 1.77 0 0 0 2-1.71c0-1.7-2.28-1.43-2.28-2.54a.73.73 0 0 1 .78-.68.89.89 0 0 1 .91.65h.11c.1-.33.15-.51.24-.74a1.9 1.9 0 0 0-1.23-.37zm28.3 0a1.58 1.58 0 0 0-1.69 1.59c0 1.71 2.24 1.4 2.24 2.54a.77.77 0 0 1-.88.77 1 1 0 0 1-1-.81h-.14a6.52 6.52 0 0 1-.22 1 2.12 2.12 0 0 0 1.22.33 1.77 1.77 0 0 0 2-1.71c0-1.7-2.29-1.43-2.29-2.54a.73.73 0 0 1 .78-.68.91.91 0 0 1 .92.65h.04c.1-.33.15-.51.24-.74a1.93 1.93 0 0 0-1.24-.37zm-162.64 0a2.69 2.69 0 0 0-3 2.87 2.52 2.52 0 0 0 2.78 2.52 3.18 3.18 0 0 0 1.53-.34 2.11 2.11 0 0 1 .17-.63l-.1-.07a2 2 0 0 1-1.36.57c-.87 0-1.79-.61-1.79-2.16s.92-2.3 1.72-2.3a1.55 1.55 0 0 1 1.29.67h.11a2.53 2.53 0 0 1 .17-.76 3.26 3.26 0 0 0-1.53-.37zm36.71 0a2.71 2.71 0 0 0-2.89 2.69 2.57 2.57 0 0 0 2.87 2.7A2.75 2.75 0 0 0 78 67.09a2.57 2.57 0 0 0-2.86-2.68zm31.89 0a2.69 2.69 0 0 0-3 2.87 2.51 2.51 0 0 0 2.77 2.52 3.19 3.19 0 0 0 1.54-.34 2.11 2.11 0 0 1 .17-.63l-.1-.07a2 2 0 0 1-1.36.57c-.87 0-1.79-.61-1.79-2.16s.91-2.3 1.72-2.3a1.55 1.55 0 0 1 1.29.67h.11a2.53 2.53 0 0 1 .17-.76 3.26 3.26 0 0 0-1.53-.37zm46.66 0a2.69 2.69 0 0 0-3 2.87 2.51 2.51 0 0 0 2.77 2.52 3.19 3.19 0 0 0 1.54-.34 2.43 2.43 0 0 1 .16-.63l-.09-.07a2 2 0 0 1-1.37.57c-.86 0-1.78-.61-1.78-2.16s.91-2.3 1.72-2.3a1.56 1.56 0 0 1 1.29.67h.12a2.53 2.53 0 0 1 .17-.76 3.3 3.3 0 0 0-1.54-.37zm39.84 0a2.69 2.69 0 0 0-3 2.87 2.52 2.52 0 0 0 2.78 2.52 3.19 3.19 0 0 0 1.54-.34 2.43 2.43 0 0 1 .16-.63l-.1-.07a2 2 0 0 1-1.36.57c-.86 0-1.78-.61-1.78-2.16s.91-2.3 1.71-2.3a1.57 1.57 0 0 1 1.3.67h.1a2.9 2.9 0 0 1 .18-.76 3.3 3.3 0 0 0-1.54-.37zm-82.66.06c-.65 1.71-1.78 4.39-2.15 5.23a2.9 2.9 0 0 1 .38 0 2.09 2.09 0 0 1 .35 0 14.61 14.61 0 0 1 .51-1.54h1.79c.19.51.36 1 .52 1.54h1.3c-.57-1.23-1.45-3.52-2.09-5.23a2.85 2.85 0 0 1-.29 0h-.28zm46.66 0c-.64 1.71-1.77 4.39-2.14 5.23a2.73 2.73 0 0 1 .38 0 2.09 2.09 0 0 1 .35 0 14.61 14.61 0 0 1 .51-1.54h1.78c.18.51.36 1 .52 1.54h1.3c-.57-1.23-1.45-3.52-2.09-5.23a1.42 1.42 0 0 1-.58 0zm-116.79 0c0 .67.06 1.25.06 2.09v1c0 .85 0 1.43-.06 2.09a13.58 13.58 0 0 1 1.59 0h1.32a2.19 2.19 0 0 1 0-.33 2.5 2.5 0 0 1 0-.33 16.81 16.81 0 0 1-1.72.09v-1.94c.58 0 1.14 0 1.71.07v-.31a1.77 1.77 0 0 1 0-.34c-.57 0-1 0-1.71.06v-1.64c.23 0 1.13.05 1.7.09a1.83 1.83 0 0 1 0-.66h-2.91zm3.92 0v1.5c0 1.54-.11 3.48-.15 3.7a2 2 0 0 1 .34 0 2.2 2.2 0 0 1 .36 0c0-.28-.05-.7-.05-1.91v-1.75q1.74 1.83 3.29 3.66a1.35 1.35 0 0 1 .29 0 1.65 1.65 0 0 1 .31 0c0-2 0-3 .12-5.2a1.32 1.32 0 0 1-.34 0 1.37 1.37 0 0 1-.34 0c.06.34.06 2.39.06 3.59-1.11-1.2-2.19-2.39-3.27-3.59a1.46 1.46 0 0 1-.68 0zm5.32 0a2 2 0 0 1 0 .34 1.93 1.93 0 0 1 0 .33 13 13 0 0 1 1.37-.1 3.73 3.73 0 0 1 0 .66v1.88c0 .85 0 1.43-.06 2.09a4.77 4.77 0 0 1 .61 0 5.08 5.08 0 0 1 .62 0c0-.66-.06-1.24-.06-2.09v-1.85a5.57 5.57 0 0 1 0-.66 11.62 11.62 0 0 1 1.34.1 1.29 1.29 0 0 1 0-.33 1.32 1.32 0 0 1 0-.34h-3.92zm4.57 0c0 .67.06 1.25.06 2.09v1c0 .85 0 1.43-.06 2.09a13.42 13.42 0 0 1 1.59 0h1.32a1.37 1.37 0 0 1 0-.33 1.48 1.48 0 0 1 0-.33 16.85 16.85 0 0 1-1.73.09v-1.94c.57 0 1.14 0 1.71.07v-.31a1.77 1.77 0 0 1 0-.34c-.57 0-1.06 0-1.71.06v-1.64c.22 0 1.13.05 1.7.09a1.58 1.58 0 0 1 0-.34 1.51 1.51 0 0 1 0-.32h-2.91zm3.83 0c0 .67.06 1.25.06 2.09v1c0 .85 0 1.43-.06 2.09a4.75 4.75 0 0 1 1.23 0c0-.66-.06-1.24-.06-2.09v-.3h.07l1.35 2.39h1.36c-.55-.85-1.12-1.71-1.6-2.56a1.37 1.37 0 0 0 1.16-1.39 1.18 1.18 0 0 0-.49-1 2 2 0 0 0-1.3-.26h-1.11a4.9 4.9 0 0 1-.61 0zm10.39 0c0 .67.06 1.25.06 2.09v1c0 .85 0 1.43-.06 2.09a4.75 4.75 0 0 1 1.23 0c0-.66-.06-1.24-.06-2.09v-.38c.57 0 1.14 0 1.71.07v-.31a1.77 1.77 0 0 1 0-.34c-.57 0-1 0-1.71.06v-1.64c.22 0 1.13.05 1.7.09a1.58 1.58 0 0 1 0-.34 1.51 1.51 0 0 1 0-.32h-2.91zm10.1 0c0 .67.06 1.25.06 2.09v1c0 .85 0 1.43-.06 2.09a5.08 5.08 0 0 1 .62 0 4.77 4.77 0 0 1 .61 0C80 69 80 68.46 80 67.61v-.3h.07l1.35 2.39h1.36c-.55-.85-1.12-1.71-1.6-2.56a1.37 1.37 0 0 0 1.16-1.39 1.17 1.17 0 0 0-.48-1 2 2 0 0 0-1.31-.26h-1.1a5.08 5.08 0 0 1-.62 0zm7.12 0c-.21 1.74-.46 3.47-.77 5.2a2.09 2.09 0 0 1 .35 0 2.21 2.21 0 0 1 .35 0c.08-1.14.15-2.28.3-3.42.56 1.14 1.11 2.28 1.64 3.42h.29c.54-1.17 1.1-2.33 1.66-3.49.12 1.16.24 2.44.3 3.49h1.23c-.19-1.06-.45-3.46-.65-5.2a1.1 1.1 0 0 1-.31 0 1.24 1.24 0 0 1-.33 0c-.54 1.2-1.16 2.48-1.75 3.6-.55-1.06-1.19-2.4-1.74-3.6a1 1 0 0 1-.3 0 1.1 1.1 0 0 1-.31 0zm6.2 0c0 .67.06 1.25.06 2.09v1c0 .85 0 1.43-.06 2.09a13.58 13.58 0 0 1 1.59 0h1.32a2.19 2.19 0 0 1 0-.33 2.5 2.5 0 0 1 0-.33 16.81 16.81 0 0 1-1.72.09v-1.94c.57 0 1.14 0 1.71.07v-.31a1.77 1.77 0 0 1 0-.34c-.57 0-1 0-1.71.06v-1.64c.23 0 1.13.05 1.7.09a1.83 1.83 0 0 1 0-.66h-2.91zm3.83 0c0 .67.06 1.25.06 2.09v1c0 .85 0 1.43-.06 2.09a4.94 4.94 0 0 1 .62 0h1.65a2.61 2.61 0 0 0 2.61-2.65c0-1.9-1.18-2.45-2.9-2.45h-1.36a4.94 4.94 0 0 1-.62 0zm5.89 0c0 .67.06 1.25.06 2.09v1c0 .85 0 1.43-.06 2.09a4.77 4.77 0 0 1 .61 0 5.08 5.08 0 0 1 .62 0c0-.66-.06-1.24-.06-2.09v-1c0-.84 0-1.42.06-2.09a5.08 5.08 0 0 1-.62 0 4.77 4.77 0 0 1-.61.03zm12.34 0c0 .67.06 1.25.06 2.09v1c0 .85 0 1.43-.06 2.09a4.77 4.77 0 0 1 .61 0 5.08 5.08 0 0 1 .62 0c0-.66-.06-1.24-.06-2.09v-.3h.07l1.35 2.39h1.36c-.55-.85-1.12-1.71-1.61-2.56a1.37 1.37 0 0 0 1.17-1.39 1.18 1.18 0 0 0-.49-1 2 2 0 0 0-1.3-.26h-1.11a4.77 4.77 0 0 1-.61 0zm4.53 0c0 .67.06 1.25.06 2.09v1c0 .85 0 1.43-.06 2.09a13.58 13.58 0 0 1 1.59 0h1.32a2.19 2.19 0 0 1 0-.33 2.5 2.5 0 0 1 0-.33 16.81 16.81 0 0 1-1.72.09v-1.94c.57 0 1.14 0 1.71.07v-.31a1.77 1.77 0 0 1 0-.34c-.57 0-1 0-1.71.06v-1.64c.23 0 1.13.05 1.7.09a1.83 1.83 0 0 1 0-.66h-2.91zm13.88 0c-.21 1.74-.46 3.47-.78 5.2a1.6 1.6 0 0 1 .71 0c.08-1.14.14-2.28.3-3.42.56 1.14 1.1 2.28 1.64 3.42h.29c.54-1.17 1.09-2.33 1.66-3.49.12 1.16.25 2.44.3 3.49h1.24c-.19-1.06-.45-3.46-.65-5.2a1.12 1.12 0 0 1-.32 0 1.22 1.22 0 0 1-.32 0c-.54 1.2-1.16 2.48-1.75 3.6-.55-1.06-1.19-2.4-1.74-3.6a1 1 0 0 1-.3 0 1.06 1.06 0 0 1-.31 0zm6.19 0c0 .67.07 1.25.07 2.09v1c0 .85 0 1.43-.07 2.09a13.86 13.86 0 0 1 1.6 0h1.32a1.37 1.37 0 0 1 0-.33 1.48 1.48 0 0 1 0-.33 16.81 16.81 0 0 1-1.72.09v-1.94c.57 0 1.14 0 1.71.07v-.31a1.77 1.77 0 0 1 0-.34c-.57 0-1.06 0-1.71.06v-1.64c.22 0 1.13.05 1.7.09a1.58 1.58 0 0 1 0-.34 1.51 1.51 0 0 1 0-.32h-2.91zm3.84 0c0 .67.06 1.25.06 2.09v1c0 .85 0 1.43-.06 2.09a4.9 4.9 0 0 1 .61 0h1.66a2.61 2.61 0 0 0 2.61-2.65c0-1.9-1.19-2.45-2.9-2.45h-1.37a4.9 4.9 0 0 1-.61 0zm5.88 0c0 .67.07 1.25.07 2.09v1c0 .85 0 1.43-.07 2.09a4.82 4.82 0 0 1 1.24 0c0-.66-.06-1.24-.06-2.09v-1c0-.84 0-1.42.06-2.09a4.82 4.82 0 0 1-1.24 0zm12.37 0c.05.67.06 1.25.06 2.09v1c0 .85 0 1.43-.06 2.09a4.82 4.82 0 0 1 1.24 0c0-.66-.06-1.24-.06-2.09v-1c0-.84 0-1.42.06-2.09a4.82 4.82 0 0 1-1.24 0zm2.48 0c0 .67.06 1.25.06 2.09v1c0 .85 0 1.43-.06 2.09a4.94 4.94 0 0 1 .62 0h1.65a2.61 2.61 0 0 0 2.61-2.65c0-1.9-1.18-2.45-2.9-2.45h-1.36a4.94 4.94 0 0 1-.62 0zm11.65 0c0 .67.06 1.25.06 2.09v1c0 .85 0 1.43-.06 2.09a13.42 13.42 0 0 1 1.59 0h1.32a1.37 1.37 0 0 1 0-.33 1.48 1.48 0 0 1 0-.33 16.81 16.81 0 0 1-1.72.09v-1.94c.57 0 1.14 0 1.71.07v-.31a1.77 1.77 0 0 1 0-.34c-.57 0-1.06 0-1.71.06v-1.64c.22 0 1.13.05 1.7.09a1.58 1.58 0 0 1 0-.34 1.51 1.51 0 0 1 0-.32H175zm3.83 0c0 .67.06 1.25.06 2.09v1c0 .85 0 1.43-.06 2.09a4.75 4.75 0 0 1 1.23 0c0-.66-.06-1.24-.06-2.09v-.3h.07l1.35 2.39h1.36c-.55-.85-1.12-1.71-1.6-2.56a1.37 1.37 0 0 0 1.16-1.39 1.18 1.18 0 0 0-.49-1 2 2 0 0 0-1.3-.26h-1.1a4.94 4.94 0 0 1-.62 0zm4 0c.49 1.16 1.57 3.91 2 5.2a1.38 1.38 0 0 1 .66 0c.59-1.73 1.57-4 2.06-5.2a1.15 1.15 0 0 1-.33 0 1.24 1.24 0 0 1-.33 0c-.39 1.17-.9 2.53-1.42 3.78-.46-1.25-1-2.65-1.34-3.78a4.87 4.87 0 0 1-.66 0 5.27 5.27 0 0 1-.63.03zm5.5 0c0 .67.06 1.25.06 2.09v1c0 .85 0 1.43-.06 2.09a4.82 4.82 0 0 1 1.24 0c0-.66-.06-1.24-.06-2.09v-1c0-.84 0-1.42.06-2.09a4.82 4.82 0 0 1-1.24 0zm7.43 0c.05.67.06 1.25.06 2.09v1c0 .85 0 1.43-.06 2.09a13.86 13.86 0 0 1 1.6 0h1.32a1.37 1.37 0 0 1 0-.33 1.48 1.48 0 0 1 0-.33 16.85 16.85 0 0 1-1.73.09v-1.94c.57 0 1.14 0 1.71.07a1.61 1.61 0 0 1 0-.31 1.77 1.77 0 0 1 0-.34c-.57 0-1.06 0-1.71.06v-1.64c.22 0 1.12.05 1.7.09a1.58 1.58 0 0 1 0-.34 1.51 1.51 0 0 1 0-.32h-2.92zm-69.27 0a1.23 1.23 0 0 0-1.38 1.21 2.23 2.23 0 0 0 .55 1.23c-.81.41-1.36.82-1.36 1.6a1.3 1.3 0 0 0 1.44 1.22 2.78 2.78 0 0 0 1.68-.6l.36.5h1.55c-.35-.34-.8-.84-1.12-1.21a11.88 11.88 0 0 0 1-1.32 5.89 5.89 0 0 1-.41-.44 7.11 7.11 0 0 1-.9 1.46c-.41-.48-.8-1-1.19-1.45.66-.41 1-.79 1-1.28s-.52-.92-1.23-.92zm-51.45.3c1 0 1.64.79 1.64 2.1 0 1.64-.79 2.39-1.69 2.39s-1.58-.56-1.58-2.16c.01-1.23.57-2.26 1.64-2.26zm51.58 0a.54.54 0 0 1 .53.55 1.41 1.41 0 0 1-.6 1 2.14 2.14 0 0 1-.47-1 .51.51 0 0 1 .54-.54zm-67.13.05c.82 0 1.17.1 1.17 1a.94.94 0 0 1-1 1.08h-.17v-2zm20.49 0c.82 0 1.17.1 1.17 1a.94.94 0 0 1-1 1.08L80 67v-2zm17.92 0c1 0 1.72.77 1.72 2 0 1.56-.71 2.33-1.84 2.33h-.66v-4.18a7.52 7.52 0 0 1 .78 0zm17.46 0c.82 0 1.17.1 1.17 1a1 1 0 0 1-1 1.08h-.16v-2zm29.21 0c1 0 1.72.77 1.72 2 0 1.56-.71 2.33-1.84 2.33h-.66v-4.18a7.52 7.52 0 0 1 .78 0zm20.73 0c1 0 1.72.77 1.72 2 0 1.56-.71 2.33-1.84 2.33h-.66v-4.18a7.52 7.52 0 0 1 .78 0zm14.71 0c.82 0 1.17.1 1.17 1a.94.94 0 0 1-1 1.08l-.2.1v-2zm-69.23 1c.24.59.45 1.18.67 1.79h-1.37c.22-.51.45-1.1.71-1.69zm46.67 0c.24.59.45 1.18.67 1.79h-1.38c.24-.51.46-1.1.72-1.69zm-31.57 1.35c.43.56.88 1.12 1.33 1.67a1.25 1.25 0 0 1-.81.29 1.06 1.06 0 0 1-1.09-1 1.15 1.15 0 0 1 .57-.92z"/>
</svg>
